<svg xmlns="http://www.w3.org/2000/svg" viewBox="0 0 715.97 164.63"><defs><style>.cls-1{fill:#0c869b;}</style></defs><g id="Layer_2" data-name="Layer 2"><g id="Layer_1-2" data-name="Layer 1"><path class="cls-1" d="M52.14,0A51.33,51.33,0,0,1,78.37,7.1,52.11,52.11,0,0,1,97,25.74,50.76,50.76,0,0,1,104.11,52a57,57,0,0,1-3.38,19.22A49.57,49.57,0,0,1,91.4,87.44c0,.11-.05.17-.16.17l-.17.16a35.32,35.32,0,0,0-4.62,7.76,48.2,48.2,0,0,0-3.63,19,13.87,13.87,0,0,1-2.14,7.43q-2.81,4.45-9.24,7.42,6.6,2.64,8.41,7.59a5.38,5.38,0,0,1,.58,1.9,12.87,12.87,0,0,1,.25,1.89,17.84,17.84,0,0,1-.17,1.82,4.43,4.43,0,0,1-.82,2.14,12.43,12.43,0,0,1-6.6,6.11A25,25,0,0,1,80,157.89a4.55,4.55,0,0,1,.33,3.39,4.42,4.42,0,0,1-2,2.64,4.77,4.77,0,0,1-3.22.66,4.41,4.41,0,0,1-2.89-1.74,16.24,16.24,0,0,0-7.58-6.27q-4.46-2-12.21-2.47-5.61-.49-18-.5a4.62,4.62,0,1,1,0-9.23h3.8q11.05.16,16.5,0a66.55,66.55,0,0,0,11.22-1q4.6-.83,5.27-2.47-1-3.3-10.72-4.62-8.09-1.16-26.07-1.16a4.62,4.62,0,1,1,0-9.23,127.75,127.75,0,0,0,22.11-1.65Q65,122.59,69.46,120q4.13-2.48,4.12-5.45a54.52,54.52,0,0,1,5-23.43,35.7,35.7,0,0,1,5.94-9.57A42.38,42.38,0,0,0,92.06,68a47.67,47.67,0,0,0,2.81-16A43.06,43.06,0,0,0,80.1,19.47a42.17,42.17,0,0,0-16-8.75A42.76,42.76,0,0,0,45.87,9.4a42.25,42.25,0,0,0-17.08,6.36,42.77,42.77,0,0,0-12.95,13A41.32,41.32,0,0,0,9.49,45.87,43.78,43.78,0,0,0,10.81,64a41,41,0,0,0,8.82,16,27,27,0,0,1,3.3,4.79,58.17,58.17,0,0,1,5.28,13.36,9.76,9.76,0,0,0,3.05,5.11,8.91,8.91,0,0,0,5.7,1.65h7.09a4.89,4.89,0,0,0,4.29-1.81,102.63,102.63,0,0,0,14.52-19,70.56,70.56,0,0,0,6.77-14.86A23.5,23.5,0,0,0,70.7,62.2a8.78,8.78,0,0,0-1.4-5,6.78,6.78,0,0,0-5.78-2.64,7.77,7.77,0,0,0-3.79,1.24,12.21,12.21,0,0,0-3.47,2.88,16.87,16.87,0,0,1,.66,4.63,7.08,7.08,0,0,1-1.57,4.37,4.4,4.4,0,0,1-3.46,2.06,4.44,4.44,0,0,1-3.38-1.65,6.43,6.43,0,0,1-2-4.7,12.61,12.61,0,0,1,1-5,10.89,10.89,0,0,0-2.89-2.81,5.91,5.91,0,0,0-3.22-1.15,7.87,7.87,0,0,0-6.6,3q-3,4.29-.16,12.21A32,32,0,0,0,39,77.38a73.27,73.27,0,0,0,7.67,8.91,3.94,3.94,0,0,1,.74,3A4.91,4.91,0,0,1,46,92.23a4.24,4.24,0,0,1-2.89,1.24,4.6,4.6,0,0,1-3-.91,83.19,83.19,0,0,1-7.75-8.91,47.19,47.19,0,0,1-6.27-10.89,27.87,27.87,0,0,1-1.82-11.22,17.54,17.54,0,0,1,3.14-9.24,16.25,16.25,0,0,1,6-5.2,17.36,17.36,0,0,1,8-1.89Q47,45.21,52.14,51q6.27-5.61,11.38-5.61A16.46,16.46,0,0,1,71,47.1a16.78,16.78,0,0,1,5.77,4.71q5.44,7.92,1.65,20.29a96.24,96.24,0,0,1-3.71,9.07,80.68,80.68,0,0,1-4.37,8.25,188.53,188.53,0,0,1-12.05,17q-4.29,5-7.42,6.6a10.66,10.66,0,0,1-5.12,1.15H37a18.12,18.12,0,0,1-11.39-3.55,17.67,17.67,0,0,1-6.27-10.14,51.43,51.43,0,0,0-2.8-7.92q-1.32-2.64-2.64-4.79L12.7,86.12A52.51,52.51,0,0,1,0,52,50.84,50.84,0,0,1,7.09,25.74,51.72,51.72,0,0,1,25.9,7.1,50.79,50.79,0,0,1,52.14,0Z"/><path d="M156.49,72.72v-4l5.2-.9V31.21l-5.2-.89V26.27h34.39V37.43h-5l-.7-6.31H168V46.24h17.13v4.94H168V68h18.18l.7-6.41h5V72.72Z"/><path d="M197.23,72.72v-4l5.2-.9V42.86H197V38.2h5.39V33.83q0-5.52,2.89-8.53c1.92-2,4.61-3,8.05-3a16.64,16.64,0,0,1,2.35.18,26.22,26.22,0,0,1,2.6.49l-.77,4.79a13.69,13.69,0,0,0-1.54-.23c-.65-.06-1.26-.09-1.84-.09a5,5,0,0,0-4.11,1.64,7.35,7.35,0,0,0-1.34,4.77V38.2h7.53v4.66h-7.53V67.8l5.93.9v4Z"/><path d="M220.36,72.72v-4l5.2-.9V42.86h-5.39V38.2h5.39V33.83q0-5.52,2.89-8.53c1.92-2,4.61-3,8.05-3a16.75,16.75,0,0,1,2.35.18c.84.11,1.7.28,2.6.49l-.77,4.79a13.57,13.57,0,0,0-1.55-.23q-1-.09-1.83-.09a5,5,0,0,0-4.12,1.64,7.41,7.41,0,0,0-1.34,4.77V38.2h7.53v4.66h-7.53V67.8l5.94.9v4Z"/><path d="M259,73.39a15.48,15.48,0,0,1-8.32-2.19,14.53,14.53,0,0,1-5.47-6.08,19.92,19.92,0,0,1-1.93-9V54.72a18.66,18.66,0,0,1,2-8.78,16.25,16.25,0,0,1,5.39-6.13,13,13,0,0,1,7.36-2.25,14.74,14.74,0,0,1,7.8,1.92,12,12,0,0,1,4.73,5.37A19.24,19.24,0,0,1,272.2,53v3.93H249.8l-.09.15A15.6,15.6,0,0,0,250.87,63a9.33,9.33,0,0,0,3.18,4,8.43,8.43,0,0,0,5,1.46,15.7,15.7,0,0,0,5.6-.91,12.8,12.8,0,0,0,4.17-2.5l2.45,4.08a15.06,15.06,0,0,1-4.89,3A19.62,19.62,0,0,1,259,73.39ZM250,52h15.91v-.83a10.87,10.87,0,0,0-.87-4.45,7,7,0,0,0-2.62-3.09,7.78,7.78,0,0,0-4.35-1.13,6.49,6.49,0,0,0-3.83,1.22,9.35,9.35,0,0,0-2.84,3.34,14.23,14.23,0,0,0-1.47,4.78Z"/><path d="M294,73.39a15,15,0,0,1-8.17-2.19,14.56,14.56,0,0,1-5.39-6.08,20.06,20.06,0,0,1-1.92-9V54.79A20.34,20.34,0,0,1,280.33,46,14.4,14.4,0,0,1,294,37.56a18.28,18.28,0,0,1,7.32,1.37,15.15,15.15,0,0,1,5.28,3.77l.16,8.29H301.8l-1.08-6A7.89,7.89,0,0,0,298,43.18a10,10,0,0,0-3.83-.67,7.8,7.8,0,0,0-4.93,1.65A11,11,0,0,0,286,48.6a15.6,15.6,0,0,0-1.18,6.19v1.34a17.77,17.77,0,0,0,1.1,6.54A9.51,9.51,0,0,0,289,67a8.79,8.79,0,0,0,10.19-.24,7.56,7.56,0,0,0,2.58-4.82h5.65l.06.19a11.59,11.59,0,0,1-6.3,9.72A15.21,15.21,0,0,1,294,73.39Z"/><path d="M324.58,73.26A8.22,8.22,0,0,1,318.5,71q-2.25-2.25-2.25-7.19v-21H310.8V38.2h5.45V29.87h6.29V38.2H330v4.66h-7.5v21a5.62,5.62,0,0,0,1,3.66,3.27,3.27,0,0,0,2.65,1.18,16.37,16.37,0,0,0,2.48-.2c.92-.14,1.63-.26,2.14-.37l.86,4.12a26.49,26.49,0,0,1-3.36.73A24,24,0,0,1,324.58,73.26Z"/><path d="M335.46,72.72v-4l5.2-.9V43.14l-5.2-.89v-4h11.48V67.8l5.2.9v4Zm4.88-43V23h6.6v6.73Z"/><path d="M370.81,72.72l-12.29-30L355,42.25v-4h14.48v4l-4.49.64,7.65,19.65.89,2.78h.2l1-2.78,7.11-19.65-4.62-.64v-4h14.45v4l-3.64.48-11.68,30Z"/><path d="M409.88,73.39a15.48,15.48,0,0,1-8.32-2.19,14.53,14.53,0,0,1-5.47-6.08,19.92,19.92,0,0,1-1.93-9V54.72a18.66,18.66,0,0,1,2-8.78,16.25,16.25,0,0,1,5.39-6.13,13,13,0,0,1,7.36-2.25,14.74,14.74,0,0,1,7.8,1.92,12,12,0,0,1,4.73,5.37,19.24,19.24,0,0,1,1.6,8.15v3.93h-22.4l-.09.15A15.6,15.6,0,0,0,401.73,63a9.33,9.33,0,0,0,3.18,4,8.43,8.43,0,0,0,5,1.46,15.7,15.7,0,0,0,5.6-.91,12.8,12.8,0,0,0,4.17-2.5l2.45,4.08a15.06,15.06,0,0,1-4.89,3A19.62,19.62,0,0,1,409.88,73.39Zm-9-21.38h15.91v-.83a10.87,10.87,0,0,0-.87-4.45,7,7,0,0,0-2.62-3.09,7.78,7.78,0,0,0-4.35-1.13,6.49,6.49,0,0,0-3.83,1.22,9.35,9.35,0,0,0-2.84,3.34,14.23,14.23,0,0,0-1.47,4.78Z"/><path d="M444.05,72.72v-4l3.45-.48,16.23-41.95h5.39l15.95,42,3.42.48v4H475.15v-4l3.51-.61-3.06-8.55H457l-3.16,8.55,3.51.61v4ZM459,54.28h14.74l-6.83-18.89-.38-1h-.2l-.38,1Z"/><path d="M492.76,72.72v-4l5.2-.9V27.9l-5.2-.9V23h11.49V67.8l5.2.9v4Z"/><path d="M526.1,73.26A8.22,8.22,0,0,1,520,71q-2.25-2.25-2.25-7.19v-21h-5.45V38.2h5.45V29.87h6.29V38.2h7.49v4.66h-7.49v21a5.62,5.62,0,0,0,1,3.66,3.26,3.26,0,0,0,2.64,1.18,16.39,16.39,0,0,0,2.49-.2c.92-.14,1.63-.26,2.14-.37l.86,4.12a26.89,26.89,0,0,1-3.36.73A24,24,0,0,1,526.1,73.26Z"/><path d="M537.14,72.72v-4l5.2-.9V43.14l-5.2-.89v-4H548l.54,4.4.07.61a12,12,0,0,1,3.62-4.15,8.4,8.4,0,0,1,4.93-1.5,11.75,11.75,0,0,1,2,.18,10.06,10.06,0,0,1,1.49.33l-.83,5.84-4.37-.26a6,6,0,0,0-4.18,1.14,8.37,8.37,0,0,0-2.62,3.46V67.8l5.2.9v4Z"/><path d="M579.63,73.39a11.06,11.06,0,0,1-8.77-3.61q-3.17-3.6-3.16-11.23V43.14l-4-.89v-4H574V58.62q0,5.52,1.63,7.59a6,6,0,0,0,5.07,2.07,10.41,10.41,0,0,0,5.54-1.35,8.6,8.6,0,0,0,3.3-3.85V43.14l-4.63-.89v-4H595.8V67.8l4,.9v4h-9.6l-.42-5.11a11.18,11.18,0,0,1-10.11,5.78Z"/><path d="M603.94,72.72v-4l5.2-.9V43.14l-5.2-.89v-4h11.48V67.8l5.2.9v4Zm4.88-43V23h6.6v6.73Z"/><path d="M638.93,73.39a28.74,28.74,0,0,1-6.51-.71A38.37,38.37,0,0,1,626,70.52l-.06-8.2h4.75l1.18,4.94a17.39,17.39,0,0,0,7.08,1.4c2.55,0,4.38-.48,5.49-1.46a4.65,4.65,0,0,0,1.66-3.64,4.38,4.38,0,0,0-1.68-3.46c-1.11-1-3.14-1.75-6.07-2.41q-6.26-1.44-9.21-3.84a7.9,7.9,0,0,1-3-6.43,8.27,8.27,0,0,1,1.63-5,11.12,11.12,0,0,1,4.53-3.52,16.34,16.34,0,0,1,6.76-1.31,22.38,22.38,0,0,1,6.72.89,17.23,17.23,0,0,1,4.86,2.4l.32,7.88h-4.72l-1-4.6a8.47,8.47,0,0,0-2.65-1.27,12.46,12.46,0,0,0-3.51-.45,7.82,7.82,0,0,0-4.77,1.37,4.16,4.16,0,0,0-1.83,3.45,4,4,0,0,0,.52,2.1,4.51,4.51,0,0,0,2,1.61,23,23,0,0,0,4.4,1.42q7.21,1.7,10.07,4.31a8.39,8.39,0,0,1,2.85,6.44,9.52,9.52,0,0,1-3.24,7.33Q645.9,73.38,638.93,73.39Z"/><path d="M657.56,72.72v-4l5.2-.9V43.14l-5.2-.89v-4h10.85l.41,4.5a11.26,11.26,0,0,1,4.28-3.8,13.13,13.13,0,0,1,6.06-1.34,10.63,10.63,0,0,1,5.92,1.6,9.63,9.63,0,0,1,3.71,4.78,12.82,12.82,0,0,1,4.31-4.66,11.38,11.38,0,0,1,6.25-1.72,10.38,10.38,0,0,1,8.36,3.62q3.06,3.63,3.06,10.9V67.8l5.2.9v4H699.26v-4l5.2-.9V52q0-5.1-1.76-7.22a6.34,6.34,0,0,0-5.2-2.12A6.63,6.63,0,0,0,692.22,45a10,10,0,0,0-2.31,5.82v17l5.2.9v4H678.43v-4l5.2-.9V52q0-4.84-1.81-7.1a6.31,6.31,0,0,0-5.21-2.24,8.58,8.58,0,0,0-4.72,1.18,7.56,7.56,0,0,0-2.84,3.31V67.8l5.2.9v4Z"/><path d="M155.22,136.1l3.32-.48,14.13-40.39h9.54l14,40.39,3.32.48v5.58H183.74V136.1l3.22-.58-2-6.38H169.86l-2,6.38,3.22.58v5.58H155.22Zm16.84-13.82h10.66l-5.23-16.36h-.2Z"/><path d="M223.45,137.31a11.19,11.19,0,0,1-9.66,5,10.85,10.85,0,0,1-8.55-3.49q-3.09-3.5-3.1-10.87V113.73l-3.79-1v-5.62h13.11v20.9q0,3.76,1.26,5.4a4.42,4.42,0,0,0,3.75,1.65,9.25,9.25,0,0,0,3.81-.72,6.71,6.71,0,0,0,2.63-2.06v-18.6l-4.08-1v-5.62h13.4v28l4.18,1v5.58H224.06Z"/><path d="M268.24,119H262l-1-4.31a8.16,8.16,0,0,0-2.41-1.27,9.55,9.55,0,0,0-3.2-.51,6.18,6.18,0,0,0-3.89,1.1,3.34,3.34,0,0,0-1.44,2.76,3.17,3.17,0,0,0,1.37,2.6q1.38,1,5.49,1.83,6.4,1.27,9.51,3.75a8.25,8.25,0,0,1,3.09,6.81,9.09,9.09,0,0,1-4,7.61q-4,2.94-10.55,2.95a22,22,0,0,1-7.32-1.17,18.62,18.62,0,0,1-5.92-3.33l-.09-7.75h6.51l1.27,4.5a5.43,5.43,0,0,0,2.27,1,12.71,12.71,0,0,0,3,.34,7.62,7.62,0,0,0,4.32-1,3.2,3.2,0,0,0,1.48-2.78,3.26,3.26,0,0,0-1.5-2.65,15.34,15.34,0,0,0-5.52-2q-6.09-1.24-9.2-3.69a8,8,0,0,1-3.11-6.65,9.65,9.65,0,0,1,3.57-7.48q3.57-3.15,10.18-3.14a26.31,26.31,0,0,1,7.61,1.08,16.16,16.16,0,0,1,5.63,2.78Z"/><path d="M287.45,98.71v8.45h6.06v6.54h-6.06v17.58a4,4,0,0,0,.83,2.87,3,3,0,0,0,2.23.86,16.31,16.31,0,0,0,1.68-.08,15.42,15.42,0,0,0,1.61-.27l.79,6.73a22.2,22.2,0,0,1-3.09.72,21.5,21.5,0,0,1-3.32.24q-4.81,0-7.42-2.65t-2.6-8.39V113.7h-5.07v-6.54h5.07V98.71Z"/><path d="M298.77,136.1l4.47-1V113.73l-4.95-1v-5.62h13.63l.41,5a10.91,10.91,0,0,1,3.13-4.18,7,7,0,0,1,4.43-1.5,10.62,10.62,0,0,1,1.55.12,8.42,8.42,0,0,1,1.35.27l-1,8.48L318,115.3a6.53,6.53,0,0,0-3.38.79,5.19,5.19,0,0,0-2.05,2.27v16.78l4.47,1v5.58H298.77Z"/><path d="M346.91,141.68a18.9,18.9,0,0,1-.67-1.77,15,15,0,0,1-.45-1.84,12.78,12.78,0,0,1-4,3.1,12,12,0,0,1-5.44,1.18,11.37,11.37,0,0,1-8.05-2.76,9.73,9.73,0,0,1-3-7.51,8.54,8.54,0,0,1,3.89-7.5q3.9-2.65,11.43-2.65h4.75v-3.38a5.07,5.07,0,0,0-1.44-3.86,5.92,5.92,0,0,0-4.24-1.37,9.88,9.88,0,0,0-2.84.37,7.29,7.29,0,0,0-2,.87l-.6,3.7h-7l0-7.65a26.18,26.18,0,0,1,5.85-2.91,21.41,21.41,0,0,1,7.2-1.18q6.41,0,10.41,3.15t4,8.94v14.26c0,.54,0,1,0,1.5a11.18,11.18,0,0,0,.11,1.34l2.84.39v5.58Zm-8.07-6.22a8.17,8.17,0,0,0,3.83-.91,7.48,7.48,0,0,0,2.68-2.28V127H340.6a6.52,6.52,0,0,0-4.5,1.39,4.36,4.36,0,0,0-1.53,3.34,3.43,3.43,0,0,0,1.13,2.74A4.6,4.6,0,0,0,338.84,135.46Z"/><path d="M359.83,97.53V91.91h14.29v43.23l4.5,1v5.58H360.31V136.1l4.5-1V98.48Z"/><path d="M381.36,136.1l4.5-1V113.73l-5-1v-5.62h14.29v28l4.46,1v5.58H381.36Zm13.82-37.2h-9.32v-7h9.32Z"/><path d="M424.69,141.68a16.47,16.47,0,0,1-.67-1.77,13.34,13.34,0,0,1-.45-1.84,12.82,12.82,0,0,1-4,3.1,12,12,0,0,1-5.44,1.18,11.39,11.39,0,0,1-8-2.76,9.72,9.72,0,0,1-3-7.51,8.52,8.52,0,0,1,3.89-7.5q3.89-2.65,11.42-2.65h4.75v-3.38a5.1,5.1,0,0,0-1.43-3.86,6,6,0,0,0-4.25-1.37,9.76,9.76,0,0,0-2.83.37,7.29,7.29,0,0,0-2,.87l-.61,3.7h-7l0-7.65a26.26,26.26,0,0,1,5.86-2.91,21.39,21.39,0,0,1,7.19-1.18q6.42,0,10.42,3.15t4,8.94v14.26c0,.54,0,1,0,1.5a9.44,9.44,0,0,0,.11,1.34l2.84.39v5.58Zm-8.08-6.22a8.14,8.14,0,0,0,3.83-.91,7.48,7.48,0,0,0,2.68-2.28V127h-4.75a6.52,6.52,0,0,0-4.5,1.39,4.36,4.36,0,0,0-1.53,3.34,3.46,3.46,0,0,0,1.13,2.74A4.64,4.64,0,0,0,416.61,135.46Z"/></g></g></svg>